<svg xmlns="http://www.w3.org/2000/svg" width="23.644" height="19.24" viewBox="0 0 23.644 19.24">
  <path id="icon-ionic-twitter" d="M25.057,6.78a9.807,9.807,0,0,1-2.786.767,4.868,4.868,0,0,0,2.134-2.686,9.639,9.639,0,0,1-3.081,1.177,4.849,4.849,0,0,0-8.392,3.317,4.749,4.749,0,0,0,.125,1.107,13.747,13.747,0,0,1-10-5.075A4.86,4.86,0,0,0,4.565,11.87a4.738,4.738,0,0,1-2.2-.606v.06a4.855,4.855,0,0,0,3.893,4.76,4.883,4.883,0,0,1-1.278.17,4.576,4.576,0,0,1-.912-.09A4.859,4.859,0,0,0,8.6,19.536a9.726,9.726,0,0,1-6.027,2.079,9.833,9.833,0,0,1-1.157-.07A13.559,13.559,0,0,0,8.839,23.74,13.72,13.72,0,0,0,22.652,9.921c0-.21-.005-.421-.015-.626A9.875,9.875,0,0,0,25.057,6.78Z" transform="translate(-1.413 -4.5)" fill="#656466"/>
</svg>
