<svg xmlns="http://www.w3.org/2000/svg" width="19.932" height="19.047" viewBox="0 0 19.932 19.047">
  <path id="icon-zocial-linkedin" d="M-.18,2.429A2.072,2.072,0,0,1,.493.841,2.47,2.47,0,0,1,2.244.216,2.4,2.4,0,0,1,3.957.832,2.17,2.17,0,0,1,4.63,2.486a2.026,2.026,0,0,1-.654,1.539,2.475,2.475,0,0,1-1.77.635H2.186A2.355,2.355,0,0,1,.474,4.025a2.132,2.132,0,0,1-.654-1.6ZM.07,19.263V6.411H4.341V19.263H.07Zm6.638,0h4.271V12.087a2.77,2.77,0,0,1,.154-1.039,2.79,2.79,0,0,1,.818-1.106,2.09,2.09,0,0,1,1.376-.452q2.155,0,2.155,2.905v6.869h4.271V11.894a6.192,6.192,0,0,0-1.347-4.319A4.594,4.594,0,0,0,14.846,6.1a4.366,4.366,0,0,0-3.867,2.136v.038H10.96l.019-.038V6.411H6.708q.038.616.038,3.829t-.038,9.023Z" transform="translate(0.18 -0.216)" fill="#656466"/>
</svg>
