<svg xmlns="http://www.w3.org/2000/svg" width="26.412" height="18.542" viewBox="0 0 26.412 18.542">
  <path id="icon-zocial-email" d="M.072,20.967V5.71q0-.026.076-.5l8.634,7.682L.174,21.5a2.325,2.325,0,0,1-.1-.53ZM1.218,4.147a1.06,1.06,0,0,1,.433-.079H24.9a1.392,1.392,0,0,1,.458.079L16.7,11.856l-1.146.954-2.267,1.934-2.267-1.934-1.146-.954ZM1.244,22.53l8.685-8.662L13.291,16.7l3.362-2.834,8.685,8.662a1.181,1.181,0,0,1-.433.079H1.651a1.114,1.114,0,0,1-.408-.079ZM17.8,12.889l8.609-7.682a1.639,1.639,0,0,1,.076.5V20.967a2.106,2.106,0,0,1-.076.53Z" transform="translate(-0.072 -4.068)" fill="#a32431"/>
</svg>
