<svg id="icon-guide"
  xmlns="http://www.w3.org/2000/svg" width="28.301" height="28.127" viewBox="0 0 28.301 28.127">
  <path id="Path_153" data-name="Path 153" d="M73.836,82.057l-1.054-1.511a39.724,39.724,0,0,0-6.787,7.133l1.112,1.594a37.873,37.873,0,0,1,6.729-7.217" transform="translate(-61.073 -74.54)" fill="#a32431"/>
  <path id="Path_154" data-name="Path 154" d="M103.846,125.068l-1.054-1.511a39.7,39.7,0,0,0-6.787,7.134l1.112,1.594a37.89,37.89,0,0,1,6.729-7.217" transform="translate(-88.846 -114.344)" fill="#a32431"/>
  <path id="Path_155" data-name="Path 155" d="M133.852,168.079l-1.054-1.511a39.73,39.73,0,0,0-6.787,7.134l1.112,1.594a37.879,37.879,0,0,1,6.729-7.217" transform="translate(-116.615 -154.148)" fill="#a32431"/>
  <path id="Path_156" data-name="Path 156" d="M28.234,21.692l-.857-1.275-.131-.2L26.292,18.8l-1.5,1.065.7.987L16.7,24.05,27.28,16.672l.257-.179L17.856,2.615,16.349,3.666h0l-.741.517,1.051,1.506.741-.517,7.58,10.865-11.323,7.9a37.874,37.874,0,0,1,7.627-7.465q.74-.544,1.506-1.051L21.74,13.914,13.084,1.507,12.033,0q-.765.508-1.506,1.051a39.718,39.718,0,0,0-9.457,9.83Q.516,11.7,0,12.557l1.155,1.655L9.707,26.471l.1.149.857,1.228.194.278h0L26.6,22.408l1.7-.616ZM2.2,12.5a37.88,37.88,0,0,1,9.377-9.944l8.656,12.407a39.715,39.715,0,0,0-9.456,9.83Z" fill="#a32431"/>
</svg>
